<svg xmlns="http://www.w3.org/2000/svg" width="900" height="440" version="1.1"><text x="90" y="110" dominant-baseline="middle" transform="rotate(0, 90, 110)" style="font-family:Arial;font-size:11px;text-anchor:start">to 8051</text><line x1="80" x2="87" y1="120" y2="120" style="stroke:#000;stroke-linecap:square;stroke-width:2"/><ellipse cx="90" cy="120" rx="3" ry="3" style="fill-opacity:0;fill:#000;stroke:#000;stroke-width:2"/><line x1="50" x2="80" y1="120" y2="120" style="stroke:#000;stroke-linecap:square;stroke-width:2"/><line x1="50" x2="50" y1="100" y2="140" style="stroke:#000;stroke-linecap:square;stroke-width:2"/><text x="50" y="230" dominant-baseline="middle" transform="rotate(0, 50, 230)" style="font-family:Arial;font-size:11px;text-anchor:start">to 8051</text><text x="80" y="30" dominant-baseline="middle" transform="rotate(0, 80, 30)" style="font-family:Arial;font-size:11px;text-anchor:start">to 8051</text><line x1="50" x2="77" y1="40" y2="40" style="stroke:#000;stroke-linecap:square;stroke-width:2"/><ellipse cx="80" cy="40" rx="3" ry="3" style="fill-opacity:0;fill:#000;stroke:#000;stroke-width:2"/><line x1="50" x2="50" y1="40" y2="50" style="stroke:#000;stroke-linecap:square;stroke-width:2"/><line x1="50" x2="50" y1="90" y2="100" style="stroke:#000;stroke-linecap:square;stroke-width:2"/><path d="M 50,50 L 50,52 L 43,55 L 57,61 L 43,67 L 57,73 L 43,79 L 57,85 L 50,88 L 50,90" style="fill-opacity:0;fill:#000;stroke:#000;stroke-linecap:square;stroke-width:2"/><text x="36" y="70" dominant-baseline="middle" transform="rotate(0, 36, 70)" style="font-family:Arial;font-size:11px;text-anchor:end">R5</text><line x1="50" x2="50" y1="160" y2="190" style="stroke:#000;stroke-linecap:square;stroke-width:2"/><line x1="50" x2="50" y1="170" y2="140" style="stroke:#000;stroke-linecap:square;stroke-width:2"/><path d="M 50,148 M 42,148 L 58,148 M 50,148 L 58,163 L 42,163 L 50,148" style="fill-opacity:0;fill:#000;stroke:#000;stroke-linecap:square;stroke-width:2"/><line x1="50" x2="50" y1="210" y2="217" style="stroke:#000;stroke-linecap:square;stroke-width:2"/><ellipse cx="50" cy="220" rx="3" ry="3" style="fill-opacity:0;fill:#000;stroke:#000;stroke-width:2"/><line x1="50" x2="50" y1="190" y2="210" style="stroke:#000;stroke-linecap:square;stroke-width:2"/><line x1="50" x2="60" y1="190" y2="190" style="stroke:#000;stroke-linecap:square;stroke-width:2"/><line x1="60" x2="65" y1="190" y2="190" style="stroke:#000;stroke-linecap:square;stroke-width:2"/><line x1="105" x2="110" y1="190" y2="190" style="stroke:#000;stroke-linecap:square;stroke-width:2"/><path d="M 65,190 L 67,190 L 70,183 L 76,197 L 82,183 L 88,197 L 94,183 L 100,197 L 103,190 L 105,190" style="fill-opacity:0;fill:#000;stroke:#000;stroke-linecap:square;stroke-width:2"/><text x="85" y="176" dominant-baseline="baseline" transform="rotate(0, 85, 176)" style="font-family:Arial;font-size:11px;text-anchor:middle">R6</text><line x1="130" x2="790" y1="420" y2="420" style="stroke:#000;stroke-linecap:square;stroke-width:2"/><line x1="130" x2="130" y1="190" y2="420" style="stroke:#000;stroke-linecap:square;stroke-width:2"/><line x1="110" x2="130" y1="190" y2="190" style="stroke:#000;stroke-linecap:square;stroke-width:2"/><line x1="250" x2="270" y1="190" y2="190" style="stroke:#000;stroke-linecap:square;stroke-width:2"/><line x1="180" x2="200" y1="190" y2="190" style="stroke:#000;stroke-linecap:square;stroke-width:2"/><line x1="130" x2="151" y1="190" y2="190" style="stroke:#000;stroke-linecap:square;stroke-width:2"/><line x1="159" x2="180" y1="190" y2="190" style="stroke:#000;stroke-linecap:square;stroke-width:2"/><line x1="151" x2="151" y1="176" y2="204" style="stroke:#000;stroke-linecap:square;stroke-width:2"/><line x1="159" x2="159" y1="176" y2="204" style="stroke:#000;stroke-linecap:square;stroke-width:2"/><text x="155" y="170" dominant-baseline="baseline" transform="rotate(0, 155, 170)" style="font-family:Arial;font-size:11px;text-anchor:middle">C3</text><line x1="200" x2="205" y1="190" y2="190" style="stroke:#000;stroke-linecap:square;stroke-width:2"/><line x1="245" x2="250" y1="190" y2="190" style="stroke:#000;stroke-linecap:square;stroke-width:2"/><path d="M 205,190 L 207,190 L 210,183 L 216,197 L 222,183 L 228,197 L 234,183 L 240,197 L 243,190 L 245,190" style="fill-opacity:0;fill:#000;stroke:#000;stroke-linecap:square;stroke-width:2"/><text x="225" y="176" dominant-baseline="baseline" transform="rotate(0, 225, 176)" style="font-family:Arial;font-size:11px;text-anchor:middle">R2</text><line x1="270" x2="270" y1="190" y2="210" style="stroke:#000;stroke-linecap:square;stroke-width:2"/><line x1="270" x2="270" y1="260" y2="270" style="stroke:#000;stroke-linecap:square;stroke-width:2"/><line x1="270" x2="270" y1="210" y2="231" style="stroke:#000;stroke-linecap:square;stroke-width:2"/><line x1="270" x2="270" y1="239" y2="260" style="stroke:#000;stroke-linecap:square;stroke-width:2"/><line x1="256" x2="284" y1="231" y2="231" style="stroke:#000;stroke-linecap:square;stroke-width:2"/><line x1="256" x2="284" y1="239" y2="239" style="stroke:#000;stroke-linecap:square;stroke-width:2"/><text x="250" y="235" dominant-baseline="middle" transform="rotate(0, 250, 235)" style="font-family:Arial;font-size:11px;text-anchor:end">C2</text><line x1="270" x2="280" y1="190" y2="190" style="stroke:#000;stroke-linecap:square;stroke-width:2"/><line x1="270" x2="290" y1="270" y2="270" style="stroke:#000;stroke-linecap:square;stroke-width:2"/><line x1="280" x2="301" y1="190" y2="190" style="stroke:#000;stroke-linecap:square;stroke-width:2"/><line x1="309" x2="330" y1="190" y2="190" style="stroke:#000;stroke-linecap:square;stroke-width:2"/><line x1="301" x2="301" y1="176" y2="204" style="stroke:#000;stroke-linecap:square;stroke-width:2"/><line x1="309" x2="309" y1="176" y2="204" style="stroke:#000;stroke-linecap:square;stroke-width:2"/><text x="305" y="170" dominant-baseline="baseline" transform="rotate(0, 305, 170)" style="font-family:Arial;font-size:11px;text-anchor:middle">C1</text><line x1="330" x2="370" y1="190" y2="190" style="stroke:#000;stroke-linecap:square;stroke-width:2"/><line x1="290" x2="370" y1="270" y2="270" style="stroke:#000;stroke-linecap:square;stroke-width:2"/><line x1="790" x2="790" y1="350" y2="420" style="stroke:#000;stroke-linecap:square;stroke-width:2"/><line x1="880" x2="880" y1="300" y2="380" style="stroke:#000;stroke-linecap:square;stroke-width:2"/><line x1="430" x2="880" y1="380" y2="380" style="stroke:#000;stroke-linecap:square;stroke-width:2"/><line x1="500" x2="500" y1="230" y2="240" style="stroke:#000;stroke-linecap:square;stroke-width:2"/><line x1="500" x2="500" y1="240" y2="380" style="stroke:#000;stroke-linecap:square;stroke-width:2"/><line x1="490" x2="500" y1="230" y2="230" style="stroke:#000;stroke-linecap:square;stroke-width:2"/><line x1="370" x2="500" y1="380" y2="380" style="stroke:#000;stroke-linecap:square;stroke-width:2"/><line x1="370" x2="370" y1="380" y2="359" style="stroke:#000;stroke-linecap:square;stroke-width:2"/><line x1="370" x2="370" y1="351" y2="330" style="stroke:#000;stroke-linecap:square;stroke-width:2"/><line x1="356" x2="384" y1="359" y2="359" style="stroke:#000;stroke-linecap:square;stroke-width:2"/><path d="M 370,351 M 383.5,349 A 25,15 0 0 1 356.5,349" style="fill-opacity:0;fill:#000;stroke:#000;stroke-linecap:square;stroke-width:2"/><path d="M 370,362 M 382,370 L 382,364 M 385,367 L 379,367" style="fill-opacity:0;fill:#000;stroke:#000;stroke-linecap:square;stroke-width:2"/><text x="350" y="355" dominant-baseline="middle" transform="rotate(0, 350, 355)" style="font-family:Arial;font-size:11px;text-anchor:end">C5</text><line x1="370" x2="370" y1="280" y2="301" style="stroke:#000;stroke-linecap:square;stroke-width:2"/><line x1="370" x2="370" y1="309" y2="330" style="stroke:#000;stroke-linecap:square;stroke-width:2"/><line x1="356" x2="384" y1="301" y2="301" style="stroke:#000;stroke-linecap:square;stroke-width:2"/><line x1="356" x2="384" y1="309" y2="309" style="stroke:#000;stroke-linecap:square;stroke-width:2"/><text x="350" y="305" dominant-baseline="middle" transform="rotate(0, 350, 305)" style="font-family:Arial;font-size:11px;text-anchor:end">C4</text><line x1="370" x2="370" y1="230" y2="280" style="stroke:#000;stroke-linecap:square;stroke-width:2"/><line x1="370" x2="370" y1="210" y2="230" style="stroke:#000;stroke-linecap:square;stroke-width:2"/><line x1="880" x2="880" y1="240" y2="250" style="stroke:#000;stroke-linecap:square;stroke-width:2"/><line x1="880" x2="880" y1="290" y2="300" style="stroke:#000;stroke-linecap:square;stroke-width:2"/><path d="M 880,250 L 888,250 L 903,235 L 903,305 L 888,290 L 888,250 L 872,250 L 872,290 L 888,290" style="fill-opacity:0;fill:#000;stroke:#000;stroke-linecap:square;stroke-width:2"/><line x1="790" x2="880" y1="240" y2="240" style="stroke:#000;stroke-linecap:square;stroke-width:2"/><text x="810" y="320" dominant-baseline="middle" transform="rotate(0, 810, 320)" style="font-family:Arial;font-size:11px;text-anchor:start">Microphone</text><line x1="790" x2="790" y1="290" y2="307" style="stroke:#000;stroke-linecap:square;stroke-width:2"/><line x1="790" x2="790" y1="333" y2="350" style="stroke:#000;stroke-linecap:square;stroke-width:2"/><ellipse cx="784" cy="320" rx="14" ry="14" style="fill-opacity:0;fill:#000;stroke:#000;stroke-width:2"/><rect width="4" height="24" x="766" y="308" style="fill-opacity:1;fill:#000;stroke:#000;stroke-width:2"/><line x1="790" x2="790" y1="180" y2="290" style="stroke:#000;stroke-linecap:square;stroke-width:2"/><line x1="850" x2="850" y1="150" y2="160" style="stroke:#000;stroke-linecap:square;stroke-width:2"/><line x1="790" x2="790" y1="150" y2="160" style="stroke:#000;stroke-linecap:square;stroke-width:2"/><line x1="850" x2="850" y1="160" y2="180" style="stroke:#000;stroke-linecap:square;stroke-width:2"/><line x1="790" x2="850" y1="150" y2="150" style="stroke:#000;stroke-linecap:square;stroke-width:2"/><line x1="720" x2="810" y1="180" y2="180" style="stroke:#000;stroke-linecap:square;stroke-width:2"/><line x1="810" x2="821" y1="180" y2="180" style="stroke:#000;stroke-linecap:square;stroke-width:2"/><line x1="821" x2="821" y1="170" y2="190" style="stroke:#000;stroke-linecap:square;stroke-width:2"/><line x1="827" x2="827" y1="175" y2="185" style="stroke:#000;stroke-linecap:square;stroke-width:2"/><line x1="833" x2="833" y1="170" y2="190" style="stroke:#000;stroke-linecap:square;stroke-width:2"/><line x1="839" x2="839" y1="175" y2="185" style="stroke:#000;stroke-linecap:square;stroke-width:2"/><line x1="839" x2="850" y1="180" y2="180" style="stroke:#000;stroke-linecap:square;stroke-width:2"/><text x="830" y="168" dominant-baseline="baseline" transform="rotate(0, 830, 168)" style="font-family:Arial;font-size:12px;text-anchor:middle">+5V</text><line x1="720" x2="790" y1="160" y2="160" style="stroke:#000;stroke-linecap:square;stroke-width:2"/><text x="660" y="270" dominant-baseline="middle" transform="rotate(0, 660, 270)" style="font-family:Arial;font-size:11px;text-anchor:start">Open (not grounded)</text><text x="630" y="120" dominant-baseline="middle" transform="rotate(0, 630, 120)" style="font-family:Arial;font-size:11px;text-anchor:start">Open (not grounded)</text><line x1="720" x2="720" y1="220" y2="260" style="stroke:#000;stroke-linecap:square;stroke-width:2"/><line x1="680" x2="680" y1="130" y2="170" style="stroke:#000;stroke-linecap:square;stroke-width:2"/><line x1="490" x2="680" y1="210" y2="210" style="stroke:#000;stroke-linecap:square;stroke-width:2"/><line x1="680" x2="686" y1="170" y2="170" style="stroke:#000;stroke-linecap:square;stroke-width:2"/><line x1="714" x2="720" y1="160" y2="160" style="stroke:#000;stroke-linecap:square;stroke-width:2"/><line x1="714" x2="720" y1="180" y2="180" style="stroke:#000;stroke-linecap:square;stroke-width:2"/><line x1="692" x2="708" y1="169" y2="161" style="stroke:#000;stroke-linecap:square;stroke-width:2"/><ellipse cx="689" cy="170" rx="3" ry="3" style="fill-opacity:0;fill:#000;stroke:#000;stroke-width:2"/><ellipse cx="711" cy="160" rx="3" ry="3" style="fill-opacity:0;fill:#000;stroke:#000;stroke-width:2"/><ellipse cx="711" cy="180" rx="3" ry="3" style="fill-opacity:0;fill:#000;stroke:#000;stroke-width:2"/><line x1="680" x2="686" y1="210" y2="210" style="stroke:#000;stroke-linecap:square;stroke-width:2"/><line x1="714" x2="720" y1="200" y2="200" style="stroke:#000;stroke-linecap:square;stroke-width:2"/><line x1="714" x2="720" y1="220" y2="220" style="stroke:#000;stroke-linecap:square;stroke-width:2"/><line x1="692" x2="708" y1="209" y2="201" style="stroke:#000;stroke-linecap:square;stroke-width:2"/><ellipse cx="689" cy="210" rx="3" ry="3" style="fill-opacity:0;fill:#000;stroke:#000;stroke-width:2"/><ellipse cx="711" cy="200" rx="3" ry="3" style="fill-opacity:0;fill:#000;stroke:#000;stroke-width:2"/><ellipse cx="711" cy="220" rx="3" ry="3" style="fill-opacity:0;fill:#000;stroke:#000;stroke-width:2"/><path d="M 700,167 L 700,168 M 700,172 L 700,173 M 700,177 L 700,178 M 700,182 L 700,183 M 700,187 L 700,188 M 700,192 L 700,193 M 700,197 L 700,198 M 700,202 L 700,203" style="fill-opacity:0;fill:#000;stroke:#000;stroke-linecap:square;stroke-width:2"/><text x="560" y="190" dominant-baseline="middle" transform="rotate(0, 560, 190)" style="font-family:Arial;font-size:11px;text-anchor:start">Open (not grounded)</text><line x1="490" x2="550" y1="190" y2="190" style="stroke:#000;stroke-linecap:square;stroke-width:2"/><line x1="490" x2="500" y1="170" y2="170" style="stroke:#000;stroke-linecap:square;stroke-width:2"/><line x1="500" x2="500" y1="120" y2="170" style="stroke:#000;stroke-linecap:square;stroke-width:2"/><line x1="450" x2="500" y1="120" y2="120" style="stroke:#000;stroke-linecap:square;stroke-width:2"/><line x1="360" x2="370" y1="170" y2="170" style="stroke:#000;stroke-linecap:square;stroke-width:2"/><line x1="360" x2="360" y1="120" y2="170" style="stroke:#000;stroke-linecap:square;stroke-width:2"/><line x1="360" x2="400" y1="120" y2="120" style="stroke:#000;stroke-linecap:square;stroke-width:2"/><line x1="400" x2="421" y1="120" y2="120" style="stroke:#000;stroke-linecap:square;stroke-width:2"/><line x1="429" x2="450" y1="120" y2="120" style="stroke:#000;stroke-linecap:square;stroke-width:2"/><line x1="421" x2="421" y1="106" y2="134" style="stroke:#000;stroke-linecap:square;stroke-width:2"/><line x1="429" x2="429" y1="106" y2="134" style="stroke:#000;stroke-linecap:square;stroke-width:2"/><text x="425" y="100" dominant-baseline="baseline" transform="rotate(0, 425, 100)" style="font-family:Arial;font-size:11px;text-anchor:middle">C6</text><text x="410" y="200" dominant-baseline="middle" transform="rotate(0, 410, 200)" style="font-family:Arial;font-size:11px;text-anchor:start">LM386</text><rect width="100" height="80" x="380" y="160" style="fill-opacity:0;fill:#000;stroke:#000;stroke-width:2"/><line x1="370" x2="380" y1="170" y2="170" style="stroke:#000;stroke-linecap:square;stroke-width:2"/><line x1="370" x2="380" y1="190" y2="190" style="stroke:#000;stroke-linecap:square;stroke-width:2"/><line x1="480" x2="490" y1="170" y2="170" style="stroke:#000;stroke-linecap:square;stroke-width:2"/><line x1="480" x2="490" y1="190" y2="190" style="stroke:#000;stroke-linecap:square;stroke-width:2"/><text x="384" y="170" dominant-baseline="middle" transform="rotate(0, 384, 170)" style="font-family:Arial;font-size:12px;text-anchor:start">1</text><text x="384" y="190" dominant-baseline="middle" transform="rotate(0, 384, 190)" style="font-family:Arial;font-size:12px;text-anchor:start">2</text><text x="476" y="170" dominant-baseline="middle" transform="rotate(0, 476, 170)" style="font-family:Arial;font-size:12px;text-anchor:end">8</text><text x="476" y="190" dominant-baseline="middle" transform="rotate(0, 476, 190)" style="font-family:Arial;font-size:12px;text-anchor:end">7</text><line x1="370" x2="380" y1="210" y2="210" style="stroke:#000;stroke-linecap:square;stroke-width:2"/><line x1="480" x2="490" y1="210" y2="210" style="stroke:#000;stroke-linecap:square;stroke-width:2"/><text x="384" y="210" dominant-baseline="middle" transform="rotate(0, 384, 210)" style="font-family:Arial;font-size:12px;text-anchor:start">3</text><text x="476" y="210" dominant-baseline="middle" transform="rotate(0, 476, 210)" style="font-family:Arial;font-size:12px;text-anchor:end">6</text><line x1="370" x2="380" y1="230" y2="230" style="stroke:#000;stroke-linecap:square;stroke-width:2"/><line x1="480" x2="490" y1="230" y2="230" style="stroke:#000;stroke-linecap:square;stroke-width:2"/><text x="384" y="230" dominant-baseline="middle" transform="rotate(0, 384, 230)" style="font-family:Arial;font-size:12px;text-anchor:start">4</text><text x="476" y="230" dominant-baseline="middle" transform="rotate(0, 476, 230)" style="font-family:Arial;font-size:12px;text-anchor:end">5</text><ellipse cx="50" cy="120" rx="2" ry="2" style="fill-opacity:1;fill:#000;stroke:#000;stroke-width:2"/><ellipse cx="50" cy="190" rx="2" ry="2" style="fill-opacity:1;fill:#000;stroke:#000;stroke-width:2"/><ellipse cx="130" cy="190" rx="2" ry="2" style="fill-opacity:1;fill:#000;stroke:#000;stroke-width:2"/><ellipse cx="270" cy="190" rx="2" ry="2" style="fill-opacity:1;fill:#000;stroke:#000;stroke-width:2"/><ellipse cx="370" cy="270" rx="2" ry="2" style="fill-opacity:1;fill:#000;stroke:#000;stroke-width:2"/><ellipse cx="500" cy="380" rx="2" ry="2" style="fill-opacity:1;fill:#000;stroke:#000;stroke-width:2"/><ellipse cx="370" cy="230" rx="2" ry="2" style="fill-opacity:1;fill:#000;stroke:#000;stroke-width:2"/><ellipse cx="790" cy="240" rx="2" ry="2" style="fill-opacity:1;fill:#000;stroke:#000;stroke-width:2"/><ellipse cx="790" cy="180" rx="2" ry="2" style="fill-opacity:1;fill:#000;stroke:#000;stroke-width:2"/></svg>